<svg width="50" height="50" viewBox="0 0 50 50" fill="none" xmlns="http://www.w3.org/2000/svg">
<path d="M23.4375 21.0938H26.5625C27.1841 21.0937 27.7802 20.8468 28.2198 20.4073C28.6593 19.9677 28.9062 19.3716 28.9062 18.75V17.1875C28.9062 16.5659 28.6593 15.9698 28.2198 15.5302C27.7802 15.0907 27.1841 14.8438 26.5625 14.8438H23.4375C22.8159 14.8438 22.2198 15.0907 21.7802 15.5302C21.3407 15.9698 21.0938 16.5659 21.0938 17.1875V18.75C21.0938 19.3716 21.3407 19.9677 21.7802 20.4073C22.2198 20.8468 22.8159 21.0937 23.4375 21.0938ZM22.6562 17.1875C22.6562 16.9803 22.7386 16.7816 22.8851 16.6351C23.0316 16.4886 23.2303 16.4062 23.4375 16.4062H26.5625C26.7697 16.4062 26.9684 16.4886 27.1149 16.6351C27.2614 16.7816 27.3438 16.9803 27.3438 17.1875V18.75C27.3438 18.9572 27.2614 19.1559 27.1149 19.3024C26.9684 19.4489 26.7697 19.5312 26.5625 19.5312H23.4375C23.2303 19.5312 23.0316 19.4489 22.8851 19.3024C22.7386 19.1559 22.6562 18.9572 22.6562 18.75V17.1875Z" fill="black"/>
<path d="M42.9688 32.0312H42.1875V29.8805C42.1909 25.4149 41.33 20.9908 39.6523 16.8523V16.8523C38.3253 13.553 35.9125 10.8051 32.8125 9.0625V4.6875C32.8125 4.57034 32.7862 4.45467 32.7355 4.34905C32.6848 4.24343 32.611 4.15057 32.5195 4.07734L28.6133 0.952344C28.4747 0.841509 28.3025 0.781167 28.125 0.78125H21.875C21.6975 0.781167 21.5253 0.841509 21.3867 0.952344L17.4805 4.07734C17.389 4.15057 17.3152 4.24343 17.2645 4.34905C17.2138 4.45467 17.1875 4.57034 17.1875 4.6875V9.0625C14.088 10.8043 11.6753 13.5511 10.3477 16.8492C8.66962 20.9887 7.80874 25.4138 7.8125 29.8805V32.0312H7.03125C6.40965 32.0312 5.81351 32.2782 5.37397 32.7177C4.93443 33.1573 4.6875 33.7534 4.6875 34.375V42.1875C4.6875 42.8091 4.93443 43.4052 5.37397 43.8448C5.81351 44.2843 6.40965 44.5312 7.03125 44.5312H7.86875C8.05413 45.8339 8.70397 47.0256 9.69856 47.887C10.6932 48.7484 11.9655 49.2213 13.2812 49.2188H36.7188C38.0345 49.2213 39.3068 48.7484 40.3014 47.887C41.296 47.0256 41.9459 45.8339 42.1313 44.5312H42.9688C43.5904 44.5312 44.1865 44.2843 44.626 43.8448C45.0656 43.4052 45.3125 42.8091 45.3125 42.1875V34.375C45.3125 33.7534 45.0656 33.1573 44.626 32.7177C44.1865 32.2782 43.5904 32.0312 42.9688 32.0312ZM31.25 8.30625C30.4906 7.98304 29.7069 7.71999 28.9062 7.51953V3.1875L31.25 5.0625V8.30625ZM27.3438 3.90625H22.6562V2.34375H27.3438V3.90625ZM22.6562 5.46875H27.3438V7.20313C25.7897 6.97396 24.2103 6.97396 22.6562 7.20313V5.46875ZM18.75 5.0625L21.0938 3.1875V7.51953C20.2931 7.71999 19.5094 7.98304 18.75 8.30625V5.0625ZM6.25 42.1875V34.375C6.25 34.1678 6.33231 33.9691 6.47882 33.8226C6.62534 33.6761 6.82405 33.5938 7.03125 33.5938H7.8125V42.9688H7.03125C6.82405 42.9688 6.62534 42.8864 6.47882 42.7399C6.33231 42.5934 6.25 42.3947 6.25 42.1875ZM40.625 43.7984C40.6174 44.8276 40.2018 45.8118 39.4695 46.535C38.7372 47.2582 37.748 47.6615 36.7188 47.6562H13.2812C12.252 47.6615 11.2628 47.2582 10.5305 46.535C9.79819 45.8118 9.38264 44.8276 9.375 43.7984V29.8805C9.37211 25.6154 10.1945 21.3901 11.7969 17.4375C12.8742 14.8216 14.7043 12.5846 17.0549 11.0105C19.4056 9.43632 22.1709 8.59593 25 8.59593C27.8291 8.59593 30.5944 9.43632 32.9451 11.0105C35.2957 12.5846 37.1258 14.8216 38.2031 17.4375V17.4375C39.8056 21.3901 40.628 25.6154 40.625 29.8805V43.7984ZM43.75 42.1875C43.75 42.3947 43.6677 42.5934 43.5212 42.7399C43.3747 42.8864 43.176 42.9688 42.9688 42.9688H42.1875V33.5938H42.9688C43.176 33.5938 43.3747 33.6761 43.5212 33.8226C43.6677 33.9691 43.75 34.1678 43.75 34.375V42.1875Z" fill="black"/>
<path d="M37.5 24.2188C37.5 20.9035 36.183 17.7241 33.8388 15.3799C31.4946 13.0357 28.3152 11.7188 25 11.7188C21.6848 11.7188 18.5054 13.0357 16.1612 15.3799C13.817 17.7241 12.5 20.9035 12.5 24.2188V29.05C12.0446 29.211 11.6501 29.5088 11.3704 29.9026C11.0907 30.2964 10.9395 30.767 10.9375 31.25V43.75C10.9375 44.3716 11.1844 44.9677 11.624 45.4073C12.0635 45.8468 12.6596 46.0938 13.2812 46.0938H36.7188C37.3404 46.0937 37.9365 45.8468 38.376 45.4073C38.8156 44.9677 39.0625 44.3716 39.0625 43.75V31.25C39.0605 30.767 38.9093 30.2964 38.6296 29.9026C38.3499 29.5088 37.9554 29.211 37.5 29.05V24.2188ZM25 13.2812C27.8999 13.2844 30.68 14.4377 32.7306 16.4882C34.7811 18.5387 35.9344 21.3189 35.9375 24.2188V28.9062H14.0625V24.2188C14.0656 21.3189 15.2189 18.5387 17.2694 16.4882C19.32 14.4377 22.1001 13.2844 25 13.2812ZM13.2812 30.4688H36.7188C36.926 30.4688 37.1247 30.5511 37.2712 30.6976C37.4177 30.8441 37.5 31.0428 37.5 31.25V32.8125H16.9703C16.8343 32.5757 16.6383 32.3789 16.4022 32.2418C16.1661 32.1047 15.8981 32.0321 15.625 32.0312H12.5V31.25C12.5 31.0428 12.5823 30.8441 12.7288 30.6976C12.8753 30.5511 13.074 30.4688 13.2812 30.4688ZM17.1875 34.375H37.5V35.9375H17.1875V34.375ZM15.625 33.5938V36.7188H12.5V33.5938H15.625ZM36.7188 44.5312H13.2812C13.074 44.5312 12.8753 44.4489 12.7288 44.3024C12.5823 44.1559 12.5 43.9572 12.5 43.75V38.2812H15.625C15.8981 38.2804 16.1661 38.2078 16.4022 38.0707C16.6383 37.9336 16.8343 37.7368 16.9703 37.5H37.5V43.75C37.5 43.9572 37.4177 44.1559 37.2712 44.3024C37.1247 44.4489 36.926 44.5312 36.7188 44.5312Z" fill="black"/>
</svg>
