<svg width="50" height="50" viewBox="0 0 50 50" fill="none" xmlns="http://www.w3.org/2000/svg">
<g clip-path="url(#clip0)">
<path d="M43.4176 24.0848L35.4813 23.1727C35.1868 21.5399 34.5015 20.0137 33.4746 18.7044L33.652 18.4034C33.9316 17.929 33.8578 17.3488 33.4684 16.9595C33.0791 16.5701 32.4987 16.4963 32.0245 16.776L31.7237 16.9533C30.4144 15.9264 28.8881 15.2411 27.2554 14.9467L26.3432 7.01017C26.289 6.54047 25.9066 6.19958 25.4338 6.19958C24.961 6.19958 24.5786 6.54057 24.5246 7.01037L23.6124 14.9467C21.9797 15.2412 20.4534 15.9264 19.1441 16.9533L18.8432 16.776C18.3689 16.4964 17.7887 16.5701 17.3993 16.9594C17.01 17.3487 16.9361 17.929 17.2157 18.4033L17.393 18.7043C16.3661 20.0136 15.6808 21.5399 15.3864 23.1726L7.45018 24.0847C6.98048 24.1386 6.6394 24.521 6.6394 24.9939C6.6394 25.4668 6.98028 25.8493 7.45018 25.9034L15.3865 26.8155C15.681 28.4482 16.3663 29.9745 17.3931 31.2838L17.2158 31.5846C16.9363 32.059 17.0101 32.6393 17.3993 33.0286C17.6312 33.2605 17.9308 33.3804 18.2354 33.3804C18.4422 33.3804 18.6514 33.3252 18.8432 33.2121L19.1441 33.0347C20.4535 34.0617 21.9797 34.747 23.6124 35.0414L24.5246 42.9777C24.5786 43.4473 24.961 43.7883 25.4337 43.7884H25.4338C25.9066 43.7884 26.289 43.4475 26.3432 42.9776L27.2553 35.0414C28.888 34.747 30.4143 34.0617 31.7236 33.0347L32.0244 33.2121C32.2163 33.3251 32.4253 33.3804 32.6322 33.3804C32.9369 33.3804 33.2365 33.2605 33.4684 33.0286C33.8578 32.6393 33.9316 32.059 33.652 31.5846L33.4746 31.2838C34.5015 29.9744 35.1868 28.4481 35.4813 26.8155L43.4177 25.9033C43.8874 25.8492 44.2285 25.4668 44.2284 24.9939C44.2282 24.5211 43.8873 24.1387 43.4176 24.0848V24.0848ZM30.3523 17.7616L28.9927 18.5628C28.6444 18.768 28.5284 19.2167 28.7338 19.565C28.9391 19.9133 29.3877 20.0293 29.7359 19.824L31.85 18.578L30.6041 20.6921C30.3988 21.0404 30.5147 21.4891 30.863 21.6944C30.9796 21.7632 31.1076 21.7959 31.234 21.7959C31.4846 21.7959 31.7287 21.6671 31.8652 21.4355L32.6665 20.0758C33.2728 20.9639 33.7076 21.9514 33.9519 22.9969L28.1034 22.3247L27.4312 16.4762C28.4767 16.7205 29.4641 17.1552 30.3523 17.7616V17.7616ZM18.2013 20.0757L19.0025 21.4354C19.1389 21.667 19.3831 21.7958 19.6337 21.7958C19.76 21.7958 19.8879 21.7631 20.0047 21.6943C20.3529 21.489 20.4688 21.0403 20.2636 20.692L19.0177 18.578L21.1317 19.8239C21.48 20.0292 21.9288 19.9132 22.134 19.5649C22.3392 19.2166 22.2233 18.7679 21.8751 18.5627L20.5155 17.7616C21.4036 17.1553 22.391 16.7205 23.4365 16.4762L23.4188 16.6304C23.3726 17.032 23.6607 17.3949 24.0624 17.4412C24.4642 17.4872 24.827 17.1991 24.8732 16.7976L25.4338 11.9191L26.6749 22.7179L25.4338 23.9591L24.1928 22.7179L24.5146 19.9168C24.5608 19.5152 24.2726 19.1522 23.871 19.106C23.4684 19.0601 23.1064 19.3479 23.0602 19.7496L22.7643 22.3246L16.9158 22.9968C17.1602 21.9513 17.5949 20.9639 18.2013 20.0757V20.0757ZM23.1576 23.753L24.3987 24.994L23.1576 26.2351L12.359 24.994L23.1576 23.753ZM20.5155 32.2267L21.8751 31.4255C22.2233 31.2202 22.3392 30.7715 22.134 30.4232C21.9288 30.075 21.4801 29.959 21.1317 30.1643L19.0177 31.4101L20.2636 29.2961C20.4688 28.9478 20.3529 28.4991 20.0047 28.2939C19.6566 28.0887 19.2077 28.2046 19.0024 28.5528L18.2012 29.9124C17.5948 29.0242 17.1601 28.0368 16.9158 26.9913L22.7643 27.6635L23.4365 33.512C22.391 33.2678 21.4036 32.833 20.5155 32.2267V32.2267ZM24.1928 27.2703L25.4338 26.0293L26.6749 27.2704L25.4338 38.0691L24.1928 27.2703ZM32.6664 29.9125L31.8651 28.5529C31.6598 28.2047 31.2112 28.0887 30.8629 28.294C30.5146 28.4992 30.3987 28.9479 30.604 29.2962L31.8499 31.4103L29.7358 30.1644C29.3878 29.9593 28.9389 30.0751 28.7337 30.4233C28.5283 30.7716 28.6443 31.2203 28.9926 31.4256L30.3522 32.2269C29.464 32.8331 28.4766 33.268 27.4311 33.5121L28.1033 27.6636L33.9518 26.9914C33.7075 28.0369 33.2727 29.0243 32.6664 29.9125V29.9125ZM27.71 26.2352L26.469 24.9941L27.71 23.7531L38.5087 24.9941L27.71 26.2352Z" fill="black"/>
<path d="M28.5778 9.17607C31.7096 9.79489 34.5651 11.3221 36.8355 13.5924C39.1058 15.8629 40.633 18.7182 41.2519 21.85C41.3208 22.1987 41.6266 22.4402 41.9691 22.4402C42.0161 22.4402 42.0639 22.4356 42.1118 22.4262C42.5083 22.3478 42.7664 21.9628 42.6879 21.5662C42.0127 18.1488 40.3469 15.0336 37.8706 12.5573C35.3944 10.081 32.2791 8.41515 28.8617 7.73992C28.4645 7.66185 28.0801 7.91959 28.0018 8.3161C27.9233 8.71271 28.1813 9.0977 28.5778 9.17607V9.17607Z" fill="black"/>
<path d="M8.75585 22.4262C8.80377 22.4357 8.85149 22.4403 8.89853 22.4403C9.24088 22.4403 9.54692 22.1987 9.61582 21.8501C10.2346 18.7183 11.7618 15.8629 14.0322 13.5926C16.3025 11.3222 19.158 9.79501 22.2897 9.17619C22.6863 9.09782 22.9443 8.71283 22.8659 8.31622C22.7876 7.91971 22.4024 7.66187 22.006 7.74004C18.5885 8.41527 15.4734 10.0811 12.9971 12.5574C10.5208 15.0337 8.855 18.1489 8.17967 21.5662C8.10141 21.9627 8.35934 22.3478 8.75585 22.4262V22.4262Z" fill="black"/>
<path d="M15.2052 37.4586C12.3202 35.0882 10.3352 31.7781 9.61582 28.1381C9.53745 27.7415 9.15265 27.484 8.75585 27.5619C8.35934 27.6403 8.10131 28.0254 8.17967 28.4219C8.9645 32.3935 11.1296 36.0046 14.2759 38.5897C14.4121 38.7016 14.5767 38.7561 14.7401 38.7561C14.9516 38.7561 15.1613 38.6649 15.306 38.4888C15.5627 38.1764 15.5175 37.7152 15.2052 37.4586V37.4586Z" fill="black"/>
<path d="M22.2898 40.8121C20.6787 40.4938 19.1299 39.9304 17.6861 39.1378C17.3316 38.9431 16.8867 39.0728 16.6922 39.4272C16.4976 39.7816 16.6272 40.2265 16.9816 40.4211C18.5571 41.286 20.2475 41.9008 22.0059 42.2484C22.0538 42.2578 22.1015 42.2624 22.1485 42.2624C22.4909 42.2624 22.7969 42.0209 22.8658 41.6723C22.9443 41.2755 22.6864 40.8905 22.2898 40.8121V40.8121Z" fill="black"/>
<path d="M42.1118 27.562C41.7147 27.484 41.3302 27.7417 41.2519 28.1382C40.633 31.2699 39.1058 34.1254 36.8355 36.3958C34.565 38.6661 31.7096 40.1933 28.5778 40.8121C28.1813 40.8905 27.9233 41.2755 28.0018 41.6721C28.0707 42.0208 28.3765 42.2622 28.7191 42.2622C28.766 42.2622 28.8138 42.2577 28.8617 42.2482C32.2792 41.573 35.3944 39.9071 37.8706 37.4308C40.3469 34.9544 42.0127 31.8393 42.6879 28.4219C42.7664 28.0254 42.5083 27.6404 42.1118 27.562V27.562Z" fill="black"/>
<path d="M29.2665 10.842C28.8765 10.7361 28.4744 10.9666 28.3686 11.3568C28.2628 11.747 28.4933 12.149 28.8834 12.2548C31.5613 12.9808 33.9098 14.5118 35.675 16.6824C35.8197 16.8603 36.0305 16.9525 36.2433 16.9525C36.4055 16.9525 36.5689 16.8988 36.7047 16.7885C37.0183 16.5335 37.0658 16.0724 36.8107 15.7588C34.8508 13.3489 32.2421 11.6486 29.2665 10.842Z" fill="black"/>
<path d="M37.6066 18.1917C37.2442 18.3707 37.0954 18.8097 37.2744 19.172C37.6505 19.9339 37.953 20.7321 38.1732 21.5445C38.2616 21.8705 38.5569 22.0851 38.8791 22.0851C38.9424 22.0851 39.007 22.0768 39.0711 22.0595C39.4612 21.9537 39.6917 21.5517 39.586 21.1615C39.341 20.258 39.0049 19.3706 38.5869 18.524C38.4079 18.1616 37.9692 18.0128 37.6066 18.1917V18.1917Z" fill="black"/>
<path d="M21.6012 10.842C16.5935 12.1996 12.6393 16.1538 11.2818 21.1615C11.1761 21.5517 11.4066 21.9537 11.7967 22.0595C11.8608 22.0768 11.9252 22.0851 11.9886 22.0851C12.311 22.0851 12.6063 21.8705 12.6946 21.5445C13.9167 17.0365 17.4762 13.4769 21.9842 12.2548C22.3744 12.149 22.6049 11.747 22.4991 11.3569C22.3934 10.9668 21.9912 10.7361 21.6012 10.842V10.842Z" fill="black"/>
<path d="M29.0745 39.1719C29.1378 39.1719 29.2024 39.1636 29.2664 39.1462C34.2742 37.7886 38.2285 33.8345 39.586 28.8267C39.6918 28.4365 39.4612 28.0345 39.0711 27.9287C38.6817 27.8231 38.2789 28.0534 38.1732 28.4436C36.9511 32.9516 33.3915 36.5113 28.8836 37.7333C28.4934 37.8391 28.2629 38.2411 28.3687 38.6312C28.4569 38.9573 28.7521 39.1719 29.0745 39.1719V39.1719Z" fill="black"/>
<path d="M21.6012 39.1462C21.6654 39.1636 21.7298 39.1719 21.7932 39.1719C22.1155 39.1719 22.4109 38.9573 22.4992 38.6313C22.6049 38.2411 22.3744 37.8391 21.9843 37.7333C17.4763 36.5113 13.9167 32.9517 12.6947 28.4437C12.5889 28.0535 12.1871 27.823 11.7968 27.9288C11.4066 28.0346 11.1761 28.4365 11.2819 28.8267C12.6393 33.8345 16.5935 37.7887 21.6012 39.1462V39.1462Z" fill="black"/>
<path d="M24.04 5.40458C24.4443 5.40458 24.772 5.07687 24.772 4.67265V3.08719L26.0975 5.0067C26.3 5.29918 26.6546 5.42742 26.9808 5.32553C27.3114 5.22228 27.5334 4.90658 27.5334 4.5328L27.4966 0.724807C27.4927 0.323026 27.1658 0 26.7649 0C26.7624 0 26.76 0 26.7577 0C26.3533 0.00390363 26.0288 0.334737 26.0327 0.738958L26.0485 2.35955L24.6423 0.323416C24.4603 0.0598232 24.1279 -0.0546509 23.8222 0.0405978C23.5164 0.135944 23.3081 0.419055 23.3081 0.739348V4.67265C23.3081 5.07687 23.6358 5.40458 24.04 5.40458V5.40458Z" fill="black"/>
<path d="M48.8461 26.4175H47.9327V25.726H48.565C48.9693 25.726 49.2969 25.3983 49.2969 24.9941C49.2969 24.5898 48.9693 24.2621 48.565 24.2621H47.9327V23.5706H48.8461C49.2504 23.5706 49.578 23.2429 49.578 22.8387C49.578 22.4345 49.2504 22.1068 48.8461 22.1068H47.4035C46.8881 22.1068 46.4689 22.526 46.4689 23.0415V26.9469C46.4689 27.4622 46.8881 27.8816 47.4035 27.8816H48.8461C49.2504 27.8816 49.578 27.5539 49.578 27.1496C49.578 26.7454 49.2503 26.4175 48.8461 26.4175V26.4175Z" fill="black"/>
<path d="M26.0743 46.6421C25.6399 46.4818 25.2321 46.3084 25.0595 46.2334C25.0579 46.2279 25.0575 46.2207 25.059 46.2106C25.0663 46.1597 25.1193 46.1158 25.2045 46.0901C25.6312 45.9618 26.0498 46.2825 26.0692 46.2976C26.3787 46.5523 26.836 46.5109 27.0946 46.2034C27.3547 45.894 27.3148 45.4322 27.0054 45.1722C26.6302 44.8569 25.7396 44.4001 24.7823 44.6884C24.1481 44.8795 23.6989 45.3831 23.61 46.0027C23.5257 46.5898 23.7806 47.1547 24.2749 47.477C24.3073 47.498 24.3412 47.5165 24.3764 47.5322C24.3995 47.5425 24.9492 47.7872 25.5677 48.0154C25.8315 48.1127 25.9408 48.2339 25.9317 48.2852C25.9165 48.3699 25.7636 48.536 25.4788 48.536C24.9968 48.536 24.721 48.273 24.6479 48.1924C24.3764 47.8929 23.9137 47.8701 23.6141 48.1416C23.3145 48.4131 23.2917 48.8758 23.5632 49.1754C24.0381 49.6995 24.7363 50 25.4788 50C26.4255 50 27.2219 49.3871 27.3727 48.5427C27.5484 47.5582 26.783 46.9035 26.0743 46.6421V46.6421Z" fill="black"/>
<path d="M5.56629 22.3457C5.16997 22.267 4.78449 22.5242 4.70554 22.9207L4.43365 24.2868L3.98824 22.8409C3.86928 22.4546 3.4594 22.2379 3.07333 22.3569C2.81764 22.4357 2.6371 22.642 2.57815 22.8843L2.14378 24.2875L1.87218 22.9143C1.79381 22.5177 1.40892 22.2599 1.01211 22.3383C0.6156 22.4167 0.357667 22.8018 0.43613 23.1983L1.20398 27.0798C1.2109 27.1147 1.22027 27.149 1.23228 27.1826C1.34841 27.5099 1.65885 27.7289 2.00578 27.7289H2.01125C2.36043 27.7265 2.67057 27.5029 2.783 27.1723C2.78514 27.166 2.78719 27.1595 2.78924 27.1531L3.28832 25.5406L3.78516 27.1533C3.78818 27.1633 3.7915 27.1732 3.79501 27.183C3.91134 27.5102 4.22168 27.7289 4.56842 27.7289H4.57408C4.92316 27.7265 5.23321 27.5028 5.34563 27.1723C5.35598 27.142 5.36427 27.1109 5.37052 27.0795L6.14139 23.2063C6.22015 22.8099 5.9627 22.4245 5.56629 22.3457V22.3457Z" fill="black"/>
</g>
<defs>
<clipPath id="clip0">
<rect width="50" height="50" fill="white"/>
</clipPath>
</defs>
</svg>
