<svg width="50" height="50" viewBox="0 0 50 50" fill="none" xmlns="http://www.w3.org/2000/svg">
<g clip-path="url(#clip0)">
<path d="M44.2828 0.153185C43.9964 0.0528954 43.6995 0.00192037 43.4005 0.00192037C41.9237 0.00192037 40.7222 1.20901 40.7222 2.69275V7.81476H20.1451C19.4277 7.81476 18.7533 8.09415 18.2462 8.60136L16.2932 10.5544C15.8173 11.0305 15.0427 11.0305 14.5668 10.5544L12.6138 8.60146C12.1067 8.09425 11.4322 7.81476 10.7149 7.81476H9.27785V2.69275C9.27785 1.82188 8.85325 1.00101 8.14214 0.496729C7.42634 -0.0107746 6.54229 -0.136161 5.71731 0.153283C2.29818 1.35217 0.000793457 4.59338 0.000793457 8.21856V41.4557C0.000793457 46.1673 3.83388 50.0004 8.54545 50.0004H28.5244C29.2418 50.0004 29.9161 49.7211 30.4233 49.2139L32.3763 47.2608C32.8522 46.7847 33.6268 46.7847 34.1027 47.2608L36.0557 49.2139C36.5629 49.721 37.2373 50.0004 37.9546 50.0004H41.4546C43.2334 50.0004 44.9386 49.4589 46.386 48.4346C46.7161 48.2008 46.7943 47.7438 46.5607 47.4136C46.3269 47.0835 45.8699 47.0053 45.5397 47.2389C44.3412 48.0872 42.9286 48.5356 41.4546 48.5356H37.9546C37.6285 48.5356 37.322 48.4086 37.0915 48.1781L35.1385 46.225C34.0913 45.1781 32.3876 45.1781 31.3404 46.225L29.3874 48.1781C29.1569 48.4086 28.8504 48.5356 28.5243 48.5356H8.54545C4.64157 48.5356 1.46559 45.3596 1.46559 41.4557C1.46559 38.1069 3.84276 35.1899 7.11776 34.5197C8.36938 34.2636 9.27785 33.1623 9.27785 31.901V26.9218C9.27785 26.5172 8.95003 26.1894 8.54545 26.1894C8.14087 26.1894 7.81305 26.5172 7.81305 26.9218V31.901C7.81305 32.4788 7.40642 32.9655 6.82411 33.0847C4.57965 33.5439 2.6846 34.877 1.46559 36.6832V8.21856C1.46559 5.21455 3.36895 2.52889 6.20197 1.53547C6.57315 1.40549 6.97147 1.46232 7.2949 1.69161C7.62419 1.9251 7.81305 2.29003 7.81305 2.69275V23.9921C7.81305 24.3967 8.14087 24.7245 8.54545 24.7245C8.95003 24.7245 9.27785 24.3967 9.27785 23.9921V9.27956H10.7149C11.041 9.27956 11.3475 9.40651 11.578 9.63717L13.531 11.5902C14.0546 12.1137 14.7423 12.3755 15.43 12.3755C16.1177 12.3755 16.8054 12.1137 17.329 11.5902L19.282 9.63707C19.5125 9.40651 19.819 9.27956 20.1451 9.27956H40.7222V18.7732C40.7222 19.4906 41.0015 20.1649 41.5087 20.6721L43.4617 22.6251C43.6923 22.8556 43.8193 23.1622 43.8193 23.4883C43.8193 23.8143 43.6923 24.1209 43.4617 24.3514L41.5087 26.3045C41.0016 26.8117 40.7222 27.4862 40.7222 28.2034V31.9009C40.7222 33.1622 41.6306 34.2635 42.8822 34.5196C46.1573 35.1898 48.5344 38.1068 48.5344 41.4556C48.5344 42.8835 48.1116 44.2593 47.3116 45.4344C47.0841 45.7688 47.1706 46.2244 47.5049 46.452C47.631 46.5379 47.7745 46.5791 47.9164 46.5791C48.1506 46.5791 48.3807 46.467 48.5225 46.2588C49.4886 44.8397 49.9992 43.1787 49.9992 41.4556V8.21856C49.9992 4.59348 47.702 1.35217 44.2828 0.153185V0.153185ZM43.1758 33.0847C42.5936 32.9655 42.187 32.4788 42.187 31.901V28.2035C42.187 27.8774 42.3139 27.5708 42.5445 27.3403L44.4975 25.3873C45.5446 24.3401 45.5446 22.6365 44.4975 21.5893L42.5445 19.6363C42.3172 19.4091 42.187 19.0945 42.187 18.7732V2.69275C42.187 2.0167 42.7313 1.46672 43.4005 1.46672C43.5341 1.46672 43.6679 1.48986 43.7982 1.53547C46.6311 2.52889 48.5344 5.21465 48.5344 8.21856V36.6831C47.3154 34.8769 45.4204 33.5439 43.1758 33.0847V33.0847Z" fill="black"/>
<path d="M20.2638 17.8766C20.2638 15.8573 18.6211 14.2146 16.6018 14.2146C14.5826 14.2146 12.9398 15.8573 12.9398 17.8766C12.9398 19.8959 14.5826 21.5386 16.6018 21.5386C18.6211 21.5386 20.2638 19.8959 20.2638 17.8766ZM16.6018 20.0738C15.3904 20.0738 14.4046 19.0881 14.4046 17.8766C14.4046 16.6651 15.3904 15.6794 16.6018 15.6794C17.8133 15.6794 18.799 16.6651 18.799 17.8766C18.799 19.0881 17.8133 20.0738 16.6018 20.0738Z" fill="black"/>
<path d="M36.8457 31.2084C36.5596 30.9225 36.096 30.9225 35.8099 31.2084L34.3748 32.6435L32.9397 31.2084C32.6536 30.9225 32.1899 30.9225 31.9039 31.2084C31.6179 31.4945 31.6179 31.9582 31.9039 32.2442L33.339 33.6793L31.9039 35.1144C31.6179 35.4006 31.6179 35.8642 31.9039 36.1502C32.047 36.2932 32.2345 36.3647 32.4219 36.3647C32.6092 36.3647 32.7967 36.2932 32.9398 36.1502L34.3749 34.7151L35.81 36.1502C35.9531 36.2932 36.1406 36.3647 36.328 36.3647C36.5154 36.3647 36.7029 36.2932 36.8459 36.1502C37.132 35.8641 37.132 35.4005 36.8459 35.1144L35.4108 33.6793L36.8459 32.2442C37.1318 31.9581 37.1318 31.4944 36.8457 31.2084V31.2084Z" fill="black"/>
<path d="M23.4376 18.609H24.17C24.5746 18.609 24.9024 18.2812 24.9024 17.8766C24.9024 17.472 24.5746 17.1442 24.17 17.1442H23.4376C23.033 17.1442 22.7052 17.472 22.7052 17.8766C22.7052 18.2812 23.0331 18.609 23.4376 18.609Z" fill="black"/>
<path d="M34.7242 22.5829C34.7366 22.5835 34.7489 22.5838 34.7612 22.5838C35.1489 22.5838 35.4726 22.2793 35.4921 21.8877C35.4958 21.8124 35.4978 21.7366 35.4978 21.6604C35.4978 21.1601 35.4163 20.6682 35.2557 20.1984C35.1247 19.8156 34.7079 19.6118 34.3257 19.7424C33.9429 19.8733 33.7388 20.2896 33.8697 20.6723C33.9781 20.9892 34.033 21.3217 34.033 21.6603C34.033 21.7121 34.0317 21.7637 34.0291 21.8149C34.009 22.2189 34.3202 22.5628 34.7242 22.5829V22.5829Z" fill="black"/>
<path d="M29.2186 17.8766C29.2186 17.472 28.8908 17.1442 28.4862 17.1442H27.0474C26.6428 17.1442 26.315 17.472 26.315 17.8766C26.315 18.2812 26.6428 18.609 27.0474 18.609H28.4862C28.8908 18.609 29.2186 18.2812 29.2186 17.8766Z" fill="black"/>
<path d="M30.2752 25.444C30.2752 25.0394 29.9474 24.7115 29.5428 24.7115H28.1041C27.6996 24.7115 27.3717 25.0394 27.3717 25.444C27.3717 25.8485 27.6996 26.1764 28.1041 26.1764H29.5428C29.9473 26.1764 30.2752 25.8485 30.2752 25.444V25.444Z" fill="black"/>
<path d="M32.7322 19.0378C32.996 19.0378 33.251 18.8947 33.3818 18.6446C33.5692 18.2861 33.4305 17.8436 33.072 17.6562C32.5609 17.389 32.0103 17.2244 31.4357 17.1668C31.0338 17.1267 30.6741 17.4202 30.634 17.8228C30.5938 18.2252 30.8874 18.5842 31.29 18.6245C31.6776 18.6631 32.0489 18.7742 32.3934 18.9543C32.5018 19.0109 32.6178 19.0378 32.7322 19.0378V19.0378Z" fill="black"/>
<path d="M32.3858 25.9077C32.4764 25.9077 32.5684 25.8908 32.6575 25.8551C33.1917 25.6416 33.6748 25.3315 34.0935 24.9335C34.3866 24.6547 34.3982 24.1911 34.1196 23.8979C33.8408 23.6046 33.3772 23.5931 33.0841 23.8717C32.8009 24.1411 32.4744 24.3507 32.1137 24.495C31.7381 24.6451 31.5553 25.0713 31.7055 25.4469C31.8201 25.7334 32.0951 25.9077 32.3858 25.9077V25.9077Z" fill="black"/>
<path d="M20.4133 43.4326C20.4784 43.4326 20.5448 43.4238 20.6106 43.4054C21.1486 43.2552 21.6573 43.0209 22.1225 42.7089C22.4586 42.4837 22.5483 42.0288 22.3231 41.6928C22.0977 41.3568 21.6426 41.267 21.307 41.4923C20.9713 41.7173 20.6045 41.8863 20.2168 41.9946C19.8271 42.1034 19.5995 42.5074 19.7083 42.8969C19.7987 43.2208 20.0928 43.4326 20.4133 43.4326V43.4326Z" fill="black"/>
<path d="M19.4717 26.1764H20.9104C21.315 26.1764 21.6428 25.8485 21.6428 25.444C21.6428 25.0394 21.315 24.7115 20.9104 24.7115H19.4717C19.0671 24.7115 18.7393 25.0394 18.7393 25.444C18.7393 25.8485 19.0671 26.1764 19.4717 26.1764Z" fill="black"/>
<path d="M15.8847 42.4355C16.3208 42.7867 16.8067 43.0646 17.3288 43.2616C17.414 43.2937 17.5014 43.3089 17.5872 43.3089C17.8831 43.3089 18.1619 43.1281 18.2727 42.8349C18.4154 42.4565 18.2244 42.0339 17.8459 41.891C17.4693 41.7489 17.1185 41.5483 16.8032 41.2945C16.4882 41.0407 16.0272 41.0906 15.7734 41.4058C15.5198 41.7206 15.5696 42.1817 15.8847 42.4355V42.4355Z" fill="black"/>
<path d="M23.2102 40.5628C23.2927 40.5927 23.3768 40.6069 23.4598 40.6069C23.7593 40.6069 24.0404 40.4217 24.1484 40.1239C24.3384 39.6 24.4434 39.0502 24.4604 38.4899C24.4728 38.0855 24.1551 37.7477 23.7508 37.7354C23.7432 37.7351 23.7355 37.735 23.728 37.735C23.3339 37.735 23.0085 38.0484 22.9964 38.445C22.984 38.85 22.9083 39.2469 22.7713 39.6247C22.6334 40.0049 22.83 40.425 23.2102 40.5628Z" fill="black"/>
<path d="M14.6488 31.6078C15.0534 31.6078 15.3812 31.28 15.3812 30.8754V29.4366C15.3812 29.032 15.0534 28.7042 14.6488 28.7042C14.2442 28.7042 13.9164 29.032 13.9164 29.4366V30.8754C13.9164 31.2799 14.2443 31.6078 14.6488 31.6078Z" fill="black"/>
<path d="M13.9164 35.1916C13.9164 35.5962 14.2442 35.924 14.6488 35.924C15.0534 35.924 15.3812 35.5962 15.3812 35.1916V33.7528C15.3812 33.3482 15.0534 33.0204 14.6488 33.0204C14.2442 33.0204 13.9164 33.3482 13.9164 33.7528V35.1916Z" fill="black"/>
<path d="M16.1082 27.2506C16.3615 26.9532 16.6643 26.7102 17.0084 26.5282C17.366 26.3391 17.5027 25.8959 17.3135 25.5384C17.1243 25.1809 16.6813 25.0442 16.3237 25.2333C15.8148 25.5025 15.3671 25.8616 14.993 26.3008C14.7307 26.6088 14.7677 27.0711 15.0757 27.3333C15.2136 27.4507 15.3824 27.5081 15.5502 27.5081C15.7576 27.5081 15.9634 27.4207 16.1082 27.2506V27.2506Z" fill="black"/>
<path d="M13.9164 38.326C13.9164 38.7853 13.9756 39.2415 14.0926 39.682C14.1797 40.0101 14.476 40.2268 14.8 40.2268C14.8622 40.2268 14.9254 40.2188 14.9884 40.2021C15.3793 40.0982 15.6122 39.6973 15.5084 39.3062C15.4241 38.9884 15.3812 38.6585 15.3812 38.326V38.0688C15.3812 37.6643 15.0534 37.3364 14.6488 37.3364C14.2442 37.3364 13.9164 37.6643 13.9164 38.0688V38.326Z" fill="black"/>
<path d="M25.2266 24.7115H23.788C23.3834 24.7115 23.0555 25.0394 23.0555 25.444C23.0555 25.8485 23.3834 26.1764 23.788 26.1764H25.2266C25.6312 26.1764 25.9591 25.8485 25.9591 25.444C25.9591 25.0394 25.6311 24.7115 25.2266 24.7115V24.7115Z" fill="black"/>
<path d="M24.828 36.0144C25.0132 35.6719 25.2591 35.3712 25.5587 35.1207C25.8691 34.8614 25.9104 34.3993 25.6508 34.0891C25.3915 33.7788 24.9295 33.7372 24.6192 33.997C24.1767 34.3669 23.8134 34.8113 23.5395 35.3175C23.347 35.6734 23.4794 36.1177 23.8352 36.3102C23.946 36.37 24.0653 36.3985 24.1831 36.3985C24.4435 36.3984 24.6955 36.2593 24.828 36.0144V36.0144Z" fill="black"/>
<path d="M27.7831 34.4118H28.5156C28.9202 34.4118 29.248 34.0839 29.248 33.6794C29.248 33.2748 28.9202 32.9469 28.5156 32.9469H27.7831C27.3786 32.9469 27.0507 33.2748 27.0507 33.6794C27.0507 34.0839 27.3786 34.4118 27.7831 34.4118Z" fill="black"/>
</g>
<defs>
<clipPath id="clip0">
<rect width="50" height="50" fill="white"/>
</clipPath>
</defs>
</svg>
