<svg width="50" height="50" viewBox="0 0 50 50" fill="none" xmlns="http://www.w3.org/2000/svg">
<path d="M21.7417 28.1941L23.1766 27.5736L23.7968 29.0077L22.3619 29.6282L21.7417 28.1941Z" fill="black"/>
<path d="M23.0048 31.0555L24.4399 30.4333L25.0024 31.7307L23.5673 32.3529L23.0048 31.0555Z" fill="black"/>
<path d="M20.4991 25.3258L21.934 24.7053L22.5542 26.1394L21.1193 26.7599L20.4991 25.3258Z" fill="black"/>
<path d="M32.0312 13.2812V14.8438H35.7516L38.35 20.6398L39.775 20.0008L36.7633 13.2812H32.0312Z" fill="black"/>
<path d="M6.25 11.7188C9.26484 11.7188 11.7188 9.26484 11.7188 6.25C11.7188 3.23516 9.26484 0.78125 6.25 0.78125H5.46875V2.15313L5.66484 2.37422C6.04219 2.80156 6.25 3.34531 6.25 3.90625C6.25 5.19844 5.19844 6.25 3.90625 6.25C3.34531 6.25 2.80156 6.04219 2.37422 5.66484L2.15313 5.46875H0.78125V6.25C0.78125 9.26484 3.23516 11.7188 6.25 11.7188ZM3.90625 7.8125C6.06016 7.8125 7.8125 6.06016 7.8125 3.90625C7.8125 3.44844 7.73125 2.99844 7.57422 2.575C9.07812 3.11875 10.1562 4.56094 10.1562 6.25C10.1562 8.40391 8.40391 10.1562 6.25 10.1562C4.56094 10.1562 3.11875 9.07812 2.575 7.57422C2.99844 7.73125 3.44844 7.8125 3.90625 7.8125Z" fill="black"/>
<path d="M46.8758 16.4898L46.8773 16.4062C46.8773 15.7836 46.7273 15.1859 46.4586 14.6523C48.0508 14.1594 49.2188 12.6898 49.2188 10.9375C49.2188 9.96797 48.8547 9.04531 48.2047 8.33125C48.3594 7.90937 48.4375 7.47344 48.4375 7.03125C48.4375 4.87734 46.6852 3.125 44.5312 3.125C44.0867 3.125 43.6531 3.20859 43.2398 3.35312C42.4648 1.82969 40.8859 0.78125 39.0625 0.78125C38.0211 0.78125 37.0125 1.1375 36.1937 1.77891C35.4844 1.14375 34.5594 0.78125 33.5938 0.78125C31.943 0.78125 30.5281 1.8125 29.9609 3.28828C29.6234 3.19219 29.2742 3.125 28.9062 3.125C26.7523 3.125 25 4.87734 25 7.03125C25 7.47813 25.082 7.92031 25.2305 8.33828C24.7742 8.84531 24.4391 9.46328 24.2977 10.1562H11.2133L0.78125 33.4266V35.1562H27.893C27.568 35.8547 27.3438 36.6328 27.3438 37.5383C27.3438 38.7453 27.7398 39.8469 28.4273 40.7805L21.3227 47.8852L22.4273 48.9898L29.5031 41.9141C29.8945 42.2352 30.332 42.5203 30.8086 42.7648L27.4664 48.018L28.7852 48.857L32.2898 43.3492C32.9336 43.5383 33.6188 43.6688 34.3422 43.7211L34.375 49.2234L35.9375 49.2141L35.9039 43.7266C36.7773 43.6797 37.5797 43.5539 38.3063 43.3539L42.3367 48.8969L43.6 47.9781L39.8187 42.7781C40.2328 42.568 40.6086 42.3242 40.9453 42.05L47.8852 48.9898L48.9898 47.8852L42.0016 40.8969C42.6297 39.9719 42.9688 38.8461 42.9688 37.5383C42.9688 36.7273 42.7867 35.9328 42.5078 35.1562H49.2188V33.4266L43.3195 20.2664C45.293 20.0391 46.8523 18.4313 46.8758 16.4898V16.4898ZM28.125 8.59375V7.03125C27.5844 7.03125 27.0695 7.14219 26.6008 7.34141C26.5867 7.23828 26.5625 7.1375 26.5625 7.03125C26.5625 5.73906 27.6141 4.6875 28.9062 4.6875C30.1984 4.6875 31.25 5.73906 31.25 7.03125H32.8125C32.8125 5.80703 32.2352 4.72656 31.3508 4.00937C31.6422 3.03594 32.5422 2.34375 33.5938 2.34375C34.3516 2.34375 35.0672 2.71797 35.5078 3.34297L36.0773 4.15L36.7312 3.41016C37.3398 2.72266 38.1672 2.34375 39.0625 2.34375C40.7859 2.34375 42.1875 3.74531 42.1875 5.46875C42.1875 7.19219 40.7859 8.59375 39.0625 8.59375V10.1562C41.6477 10.1562 43.75 8.05391 43.75 5.46875C43.75 5.25625 43.7312 5.04922 43.7031 4.84453C43.9664 4.74453 44.2445 4.6875 44.5312 4.6875C45.8234 4.6875 46.875 5.73906 46.875 7.03125C46.875 7.40781 46.775 7.78203 46.5789 8.14219L46.2672 8.71406L46.7742 9.12344C47.3352 9.57656 47.6562 10.2375 47.6562 10.9375C47.6562 12.2297 46.6047 13.2812 45.3125 13.2812V13.2836C45.0055 13.0523 44.6625 12.8625 44.2883 12.7281L43.7617 14.1992C44.6898 14.532 45.3141 15.4195 45.3133 16.4414C45.2977 17.7148 44.193 18.75 42.8508 18.75H42.6398L38.7875 10.1562H25.925C26.2484 9.24922 27.1078 8.59375 28.125 8.59375V8.59375ZM18.3211 31.7016C14.5672 27.1969 12.5 21.4875 12.5 15.625V14.7062L20.6844 33.5938H19.8969L18.3211 31.7016ZM17.8633 33.5938H5.57422L6.31719 32.7023C8.92188 29.5766 10.7555 25.9031 11.7188 21.9961C12.682 25.9023 14.5156 29.5758 17.1203 32.7016L17.8633 33.5938ZM10.9375 14.5898V15.625C10.9375 21.4875 8.87031 27.1969 5.11641 31.7023L3.54063 33.5938H2.41875L10.9375 14.5898ZM28.9062 37.5383C28.9062 36.1195 29.6734 35.0711 30.4852 33.9609C31.0211 33.2305 31.5688 32.482 31.8453 31.6344C32.3313 31.9195 32.8125 32.332 32.8125 32.8125V33.5938H34.375V32.8125C34.375 32.2492 34.1773 31.7719 33.8859 31.3742C34.5078 29.8813 35.9883 28.9266 36.9273 28.4492C37.2641 29.4148 37.9695 30.4641 38.7516 31.6273C39.9953 33.4781 41.4062 35.575 41.4062 37.5383C41.4062 39.7664 40.2094 40.9469 38.743 41.5617C38.9453 41.1063 39.0625 40.6062 39.0625 40.0773C39.0625 39.2469 38.7766 38.4313 38.2578 37.782L35.1562 33.9055L32.0555 37.782C31.5359 38.4305 31.25 39.2461 31.25 40.0773C31.25 40.5297 31.343 40.9578 31.4938 41.3586C29.9078 40.5328 28.9062 39.1586 28.9062 37.5383V37.5383ZM35.118 42.1875C35.0164 42.1875 34.918 42.1805 34.818 42.1766C33.7039 42.1211 32.8125 41.2047 32.8125 40.0773C32.8125 39.6 32.9766 39.1313 33.2758 38.7586L35.1562 36.407L37.0375 38.7594C37.3359 39.1312 37.5 39.6 37.5 40.0773C37.5 41.2219 36.582 42.1523 35.4445 42.182C35.3336 42.1844 35.2227 42.1875 35.118 42.1875ZM41.8078 33.5938C41.282 32.6039 40.6508 31.6523 40.0477 30.7555C39.1789 29.4641 38.2812 28.1289 38.2812 27.3438V26.2516L37.2477 26.6047C37.1016 26.6539 34.0227 27.7328 32.6633 30.3078C32.0687 29.9516 31.5367 29.7781 31.4859 29.7625L30.4688 29.4398V30.507C30.4688 31.3391 29.893 32.1266 29.225 33.0383C29.093 33.2188 28.9586 33.4047 28.825 33.5938H22.3883L12.9094 11.7188H37.7758L47.582 33.5938H41.8078Z" fill="black"/>
<path d="M28.9062 13.2812H30.4688V14.8438H28.9062V13.2812Z" fill="black"/>
<path d="M25.7812 13.2812H27.3438V14.8438H25.7812V13.2812Z" fill="black"/>
</svg>
