<svg width="30" height="30" viewBox="0 0 30 30" fill="none" xmlns="http://www.w3.org/2000/svg">
<path d="M30 25.5V28.5C30 28.9063 29.8763 29.2578 29.6289 29.5547C29.3815 29.8516 29.0885 30 28.75 30H1.25C0.911458 30 0.61849 29.8516 0.371094 29.5547C0.123698 29.2578 0 28.9063 0 28.5V25.5C0 25.0937 0.123698 24.7422 0.371094 24.4453C0.61849 24.1484 0.911458 24 1.25 24H28.75C29.0885 24 29.3815 24.1484 29.6289 24.4453C29.8763 24.7422 30 25.0937 30 25.5ZM30 13.5V16.5C30 16.9063 29.8763 17.2578 29.6289 17.5547C29.3815 17.8516 29.0885 18 28.75 18H1.25C0.911458 18 0.61849 17.8516 0.371094 17.5547C0.123698 17.2578 0 16.9063 0 16.5V13.5C0 13.0937 0.123698 12.7422 0.371094 12.4453C0.61849 12.1484 0.911458 12 1.25 12H28.75C29.0885 12 29.3815 12.1484 29.6289 12.4453C29.8763 12.7422 30 13.0937 30 13.5ZM30 1.5V4.5C30 4.90625 29.8763 5.25781 29.6289 5.55469C29.3815 5.85156 29.0885 6 28.75 6H1.25C0.911458 6 0.61849 5.85156 0.371094 5.55469C0.123698 5.25781 0 4.90625 0 4.5V1.5C0 1.09375 0.123698 0.742188 0.371094 0.445312C0.61849 0.148437 0.911458 0 1.25 0H28.75C29.0885 0 29.3815 0.148437 29.6289 0.445312C29.8763 0.742188 30 1.09375 30 1.5Z" fill="#CBD962"/>
</svg>
