<svg width="50" height="50" viewBox="0 0 50 50" fill="none" xmlns="http://www.w3.org/2000/svg">
<path d="M48.4375 25C48.4375 12.0562 37.9438 1.5625 25 1.5625C12.3914 1.5625 2.11172 11.5203 1.58672 24C1.58047 24.1531 1.57891 24.3086 1.57578 24.4625C1.57187 24.6422 1.5625 24.8203 1.5625 25V25.0789C1.5625 37.9797 12.0562 48.4375 25 48.4375C37.9438 48.4375 48.4375 37.9797 48.4375 25.0789L48.4359 25.0406L48.4375 25ZM29.6797 46.368C29.2695 46.1453 28.8758 45.7805 28.7156 45.2836C28.4258 44.3836 28.65 43.6852 28.9828 42.8727C29.2484 42.2219 28.8914 41.4703 29.068 40.7891C29.4125 39.4633 29.8281 38.0266 29.7 36.6023C29.6203 35.7281 29.4266 35.6883 28.7797 35.1836C28.0977 34.6484 28.0977 33.8914 27.6414 33.2148C27.2281 32.6 28.3406 30.2641 28.0305 30.1219C27.6828 29.9617 26.8922 30.1711 26.6422 29.8391C26.3734 29.4813 26.1859 29.0586 25.8164 28.7813C25.5781 28.6023 24.5242 28.0039 24.243 28.0461C22.8266 28.2578 21.2922 26.8766 20.3883 25.9758C19.7656 25.3578 19.5063 24.6648 19.05 23.95C18.6641 23.3445 18.0797 23.2922 17.793 22.5414C17.4922 21.757 17.6711 20.7523 17.5797 19.9273C17.4805 19.0406 17.0398 18.7578 16.4891 18.0797C15.3109 16.6242 14.8773 14.4523 12.6422 14.4523C11.4414 14.4523 11.5266 17.068 10.5594 16.7172C9.46562 16.3211 7.77344 18.1945 7.79766 17.9422C7.92578 16.6344 9.26875 15.9984 9.4 15.6086C9.82891 14.3289 7.48359 14.6352 7.78437 13.568C7.93125 13.043 9.42344 12.6609 9.11484 12.3477C9.02187 12.2523 7.88047 11.4516 7.93672 11.4117C8.14844 11.2633 9.06875 11.7336 8.86875 11.1227C8.80156 10.9195 8.69297 10.7328 8.58984 10.5445C9.06419 10.0059 9.56479 9.49093 10.0898 9.00156C10.882 8.93672 11.7039 8.98594 12.0016 9.04375C13.8891 9.41563 14.5453 10.3711 16.4328 9.66406C17.3406 9.325 20.6867 9.91328 21.1664 10.8648C21.4273 11.3852 22.3992 10.55 22.7781 10.4938C23.1844 10.4328 24.1023 11.0586 24.382 10.675C25.1187 9.66641 23.9102 9.24766 25.3375 10.0242C26.2945 10.5453 28.1648 8.25391 27.5727 10.9469C27.1453 12.8883 25.575 12.9312 24.4234 14.1961C23.2898 15.4414 26.6664 15.7805 26.7531 16.9055C27.0031 20.1445 28.7305 16.6414 28.268 15.4898C27.3734 13.2594 29.2859 13.8719 30.0563 15.2891C30.4836 16.0758 30.8086 15.4133 31.332 15.1391C31.7562 14.918 31.8695 16.1156 31.9609 16.3242C32.2617 17.0172 33.25 17.2242 33.0828 18.1164C32.8969 19.1 32.1977 18.8047 31.5141 18.9711C30.7508 19.1563 31.6375 19.7984 31.5266 20.0328C31.4063 20.2891 30.4859 20.3953 30.2406 20.5406C29.5188 20.9656 29.9602 21.7945 29.3953 22.2398C29.0078 22.5461 28.6172 22.3469 28.5422 22.9203C28.4539 23.5961 27.2086 23.8133 27.3703 24.4594C27.4148 24.6367 27.7734 25.9617 27.5477 26.032C27.4438 26.0656 26.6227 24.8797 26.3984 24.7609C25.9547 24.5258 23.9375 24.718 23.6781 26.0531C23.5102 26.9164 24.8992 28.2797 25.2531 27.0906C25.6914 25.6273 25.9 27.943 25.7945 28.0336C26.0039 28.2164 27.2289 27.7328 26.8656 28.5805C26.7117 28.9391 27.0164 29.8742 27.5602 29.5859C27.7875 29.4656 28.3734 29.8281 28.4758 29.6336C28.6229 29.4095 28.8217 29.2241 29.0555 29.093C29.6031 28.7727 30.4227 29.0734 31.0227 29.1086C31.3891 29.1297 34.3922 30.768 34.4086 31.0969C34.4742 32.3273 36.7445 32.1672 37.093 32.607C38.0297 33.7992 37.7414 33.1938 37.0578 34.7211C36.7133 35.4898 37.0133 36.4328 36.1789 36.9898C35.7773 37.257 35.2875 37.1234 34.9305 37.5016C34.6086 37.843 34.7352 38.2508 34.5398 38.6453C34.3047 39.1148 31.1445 41.9547 30.9359 42.6414C30.832 42.9859 29.8891 43.2859 30.6844 43.6164C31.1469 43.7523 29.6602 45.1578 30.375 45.7398C30.5492 45.8813 30.6633 46.0008 30.7492 46.1078C30.3922 46.2031 30.0383 46.2898 29.6797 46.368V46.368ZM27.8078 3.31016C27.7773 3.42344 27.8234 3.55703 28.0195 3.6875C28.4617 3.98047 27.893 4.63125 27.2828 4.21172C26.6742 3.79219 25.3055 4.4 25.4 4.71484C25.493 5.02969 25.9156 5.15469 26.5687 4.90391C27.2203 4.65234 27.4891 4.94141 27.5984 5.23984C27.6734 5.44219 27.5984 5.55469 27.5773 5.82734C27.5578 6.1 26.7992 5.91094 26.1687 5.95391C25.5367 5.99609 24.8641 5.82734 24.8836 5.47031C24.9047 5.11406 24.2109 4.46328 23.7969 4.19141C23.3836 3.91953 23.9781 3.33203 24.5266 3.77188C25.0727 4.2125 25.0945 3.68828 25.7258 3.52109C26.0844 3.42578 25.9406 3.28281 25.8188 3.14687C26.4906 3.17031 27.1531 3.22656 27.8078 3.31016ZM30.5555 10.2391C31.0281 10.3672 31.8492 10.9648 31.8492 11.2477C31.8492 11.5313 31.4766 11.8859 31.3117 11.8453C30.1219 11.5555 29.1187 10.3813 28.5664 9.73828C27.6023 8.61719 27.6633 9.57812 26.1359 9.09297C25.7453 8.96797 25.1258 7.75625 25.5359 7.15859C25.9461 6.56094 26.4195 6.46641 26.7977 6.625C27.1758 6.78125 28.2805 6.12109 28.5344 6.90781C28.7859 7.69453 29.4805 8.69844 30.1125 8.96719C30.7453 9.23437 30.0813 10.1109 30.5555 10.2391V10.2391ZM30.9344 13.8898C31.1234 14.2672 29.7977 13.4492 29.482 13.0719C29.168 12.6953 28.693 11.8445 29.0734 11.4672C29.4516 11.0906 30.3 12.2523 30.7461 12.5062C31.6281 13.0102 30.7453 13.5133 30.9344 13.8898V13.8898ZM24.2203 8.175C24.3117 8.04922 24.5055 8.36406 24.6781 8.67891C24.8508 8.99375 24.6125 9.4375 24.2203 9.37031C23.8281 9.30469 24.0008 8.48281 24.2203 8.175ZM24.2203 5.00938C24.2203 5.00938 24.5898 5.91094 24.2203 5.76406C23.8508 5.61719 23.8328 5.23984 24.2203 5.00938ZM24.2953 7.86094C24.1898 7.61016 24.1656 6.57969 24.4219 6.26719C24.8 5.80625 25.4109 6.70781 25 7.06406C24.5898 7.42109 24.4 8.11328 24.2953 7.86094V7.86094ZM19.5477 8.96641C18.8609 8.91719 18.8461 8.32344 18.7508 8.00859C18.6555 7.69375 18.0867 8.60625 17.5117 8.00859C16.9367 7.41094 17.6461 6.625 17.5195 6.15234C17.393 5.68047 18.8758 6.15234 19.0977 6.15234C19.3195 6.15234 19.9188 7.12734 20.0758 7.11094C20.2344 7.09531 21.0859 7.88203 21.0859 7.56719C21.0859 7.25312 21.2156 6.71719 21.8125 6.65469C22.7281 6.56016 21.907 7.66172 21.875 8.09062C21.8445 8.51953 22.5711 9.26562 22.8375 9.58047C23.1063 9.89531 22.1602 10.1164 22.0016 9.92656C21.8445 9.7375 21.4336 9.92656 21.0859 10.1781C20.7398 10.4297 19.7922 9.83203 19.3508 9.64297C18.9086 9.45469 20.2344 9.01484 19.5477 8.96641V8.96641ZM22.0016 4.00234C22.6117 4.2125 22.9586 4.40078 23.2586 4.00234C23.5484 3.61797 23.7695 4.84063 23.5594 5.17578C23.3484 5.5125 22.9492 5.42891 22.8852 5.17578C22.8227 4.92578 21.3914 3.79219 22.0016 4.00234V4.00234ZM22.8852 7.79844C22.6758 7.525 22.6547 7.21094 22.8852 6.98047C23.1172 6.75 23.0422 6.47734 23.4547 6.39375C23.6578 6.35156 23.6852 6.66563 23.6852 6.95937C23.6852 7.25312 23.9383 7.63047 23.6852 8.09062C23.4328 8.55078 23.0961 8.07031 22.8852 7.79844ZM24.6078 3.13516C24.5984 3.19297 24.5602 3.22734 24.4641 3.21797C24.398 3.20676 24.3351 3.18145 24.2797 3.14375C24.3898 3.13984 24.4977 3.13672 24.6078 3.13516ZM19.8352 4.02344C20.3187 4.02344 20.2563 4.35 20.6563 4.58516C21.0563 4.81953 20.8453 3.37266 21.1187 3.91797C21.3922 4.4625 22.2039 5.21797 21.8133 5.36406C21.4773 5.49141 20.068 6.03516 19.9414 5.94141C19.8148 5.84766 19.6469 5.44922 19.3094 5.36406C18.9719 5.28047 18.6148 4.48359 18.3828 4.50469C18.2945 4.5125 18.2867 4.36094 18.3445 4.15937C18.7503 4.02874 19.1598 3.9102 19.5727 3.80391C19.618 3.92734 19.6867 4.02344 19.8352 4.02344V4.02344ZM30.3969 27.4805C29.893 28.0008 29.025 27.118 28.4258 27.1492C27.8266 27.1805 27.5258 26.5516 27.0055 26.6148C26.4836 26.6766 27.1477 25.9531 27.8734 26.332C28.5977 26.7094 30.8078 27.0547 30.3969 27.4805V27.4805ZM40.4984 9.56328C40.3516 9.75078 40.1844 9.88203 40.0242 10.0203C39.5516 10.4297 38.668 10.3984 38.5414 10.6812C38.4148 10.9641 38.0992 11.8445 36.9945 11.8484C35.8898 11.8516 36.2055 13.5133 36.1109 13.9875C36.0164 14.4617 35.7648 15.0227 35.4484 14.6133C35.1328 14.2047 35.0062 14.3609 34.0297 13.1656C33.0531 11.9703 33.4281 11.3102 33.7445 10.9641C34.0602 10.6188 34.1867 9.8 33.7445 9.92578C33.3023 10.0516 33.05 9.76797 33.1445 9.37656C33.2391 8.98516 33.7125 8.69922 33.1445 8.28125C32.5766 7.86406 32.8914 6.37109 32.45 5.00859C32.0078 3.64531 31.4078 4.61016 30.4297 4.6625C29.4516 4.71484 29.293 3.98047 29.7352 3.64453C33.8154 4.54683 37.551 6.60104 40.4984 9.56328" fill="black"/>
</svg>
