<svg width="50" height="50" viewBox="0 0 50 50" fill="none" xmlns="http://www.w3.org/2000/svg">
<path d="M38.8889 41.6667H22.2222V30.5555H19.4444V41.6667H11.1111V30.5555H8.33331V41.6667C8.33331 42.4034 8.62597 43.1099 9.14691 43.6308C9.66784 44.1518 10.3744 44.4444 11.1111 44.4444H38.8889C39.6256 44.4444 40.3321 44.1518 40.853 43.6308C41.374 43.1099 41.6666 42.4034 41.6666 41.6667V30.5555H38.8889V41.6667Z" fill="black"/>
<path d="M46.9306 18.4305L41.2639 7.09721C41.0339 6.63441 40.6794 6.24495 40.2402 5.9726C39.801 5.70025 39.2946 5.55582 38.7778 5.55554H11.2222C10.7055 5.55582 10.199 5.70025 9.7598 5.9726C9.32061 6.24495 8.96609 6.63441 8.73613 7.09721L3.06946 18.4305C2.87598 18.8187 2.77609 19.2468 2.77779 19.6805V23.9583C2.77652 24.6074 3.00257 25.2363 3.41668 25.7361C4.02871 26.4377 4.7846 26.9993 5.63298 27.3827C6.48136 27.7662 7.40235 27.9625 8.33335 27.9583C9.85247 27.9607 11.3253 27.4354 12.5 26.4722C13.6747 27.4359 15.1472 27.9626 16.6667 27.9626C18.1861 27.9626 19.6586 27.4359 20.8333 26.4722C22.0081 27.4359 23.4806 27.9626 25 27.9626C26.5195 27.9626 27.9919 27.4359 29.1667 26.4722C30.3414 27.4359 31.8139 27.9626 33.3333 27.9626C34.8528 27.9626 36.3253 27.4359 37.5 26.4722C38.8113 27.5489 40.4891 28.0753 42.1804 27.9406C43.8718 27.8059 45.4451 27.0207 46.5695 25.75C46.9886 25.2522 47.2196 24.623 47.2222 23.9722V19.6805C47.2239 19.2468 47.1241 18.8187 46.9306 18.4305ZM20.8333 20V22.1111L19.6945 23.6111C19.3448 24.0876 18.8879 24.4751 18.3607 24.7422C17.8335 25.0093 17.2508 25.1485 16.6597 25.1485C16.0687 25.1485 15.486 25.0093 14.9588 24.7422C14.4315 24.4751 13.9746 24.0876 13.625 23.6111L12.5 22.0555V20L16.0972 8.33332H22.2222L20.8333 20ZM37.5 22.0555L36.375 23.6111C36.0254 24.0876 35.5685 24.4751 35.0413 24.7422C34.514 25.0093 33.9313 25.1485 33.3403 25.1485C32.7493 25.1485 32.1666 25.0093 31.6393 24.7422C31.1121 24.4751 30.6552 24.0876 30.3056 23.6111L29.1667 22.0555V20L27.7778 8.33332H33.9584L37.5 20V22.0555Z" fill="black"/>
</svg>
